<?xml version="1.0" encoding="UTF-8" standalone="no"?>
<svg
   xmlns:dc="http://purl.org/dc/elements/1.1/"
   xmlns:cc="http://creativecommons.org/ns#"
   xmlns:rdf="http://www.w3.org/1999/02/22-rdf-syntax-ns#"
   xmlns:svg="http://www.w3.org/2000/svg"
   xmlns="http://www.w3.org/2000/svg"
   xmlns:sodipodi="http://sodipodi.sourceforge.net/DTD/sodipodi-0.dtd"
   xmlns:inkscape="http://www.inkscape.org/namespaces/inkscape"
   width="288pt"
   height="288pt"
   viewBox="0 0 288 288"
   version="1.1"
   id="svg3290"
   inkscape:version="0.48.4 r9939"
   sodipodi:docname="DC (3).svg">
  <metadata
     id="metadata3328">
    <rdf:RDF>
      <cc:Work
         rdf:about="">
        <dc:format>image/svg+xml</dc:format>
        <dc:type
           rdf:resource="http://purl.org/dc/dcmitype/StillImage" />
        <dc:title></dc:title>
      </cc:Work>
    </rdf:RDF>
  </metadata>
  <defs
     id="defs3326" />
  <sodipodi:namedview
     pagecolor="#ffffff"
     bordercolor="#666666"
     borderopacity="1"
     objecttolerance="10"
     gridtolerance="10"
     guidetolerance="10"
     inkscape:pageopacity="0"
     inkscape:pageshadow="2"
     inkscape:window-width="1920"
     inkscape:window-height="1033"
     id="namedview3324"
     showgrid="false"
     inkscape:zoom="1.6774144"
     inkscape:cx="-2.4027253"
     inkscape:cy="170.77885"
     inkscape:window-x="0"
     inkscape:window-y="25"
     inkscape:window-maximized="1"
     inkscape:current-layer="svg3290" />
  <path
     fill="#3d3d3d"
     d=" M 0.00 0.00 L 288.00 0.00 L 288.00 288.00 L 0.00 288.00 L 0.00 0.00 Z"
     id="path3292"
     style="fill:none" />
  <path
     fill="#75af41"
     d=" M 149.39 30.28 C 150.99 29.37 152.50 30.79 153.97 31.29 C 153.90 33.44 153.22 35.46 151.80 37.09 C 150.20 36.35 148.60 35.60 147.00 34.85 C 147.47 33.23 147.41 30.88 149.39 30.28 Z"
     id="path3294" />
  <path
     fill="#75af41"
     d=" M 190.21 41.52 C 194.05 40.94 197.29 45.74 195.15 49.07 C 193.58 52.42 188.34 52.60 186.51 49.40 C 184.37 46.41 186.61 41.85 190.21 41.52 Z"
     id="path3296" />
  <path
     fill="#75af41"
     d=" M 218.44 68.46 C 224.19 66.95 229.62 73.66 227.03 78.96 C 224.95 83.94 217.43 85.17 214.20 80.67 C 210.49 76.62 213.09 69.38 218.44 68.46 Z"
     id="path3298" />
  <path
     fill="#75af41"
     d=" M 147.35 92.34 C 155.72 89.81 165.39 95.50 167.12 104.09 C 169.46 112.94 162.63 122.81 153.46 123.52 C 144.49 124.82 135.52 117.11 135.67 108.00 C 135.33 100.87 140.56 94.21 147.35 92.34 Z"
     id="path3300" />
  <path
     fill="#75af41"
     d=" M 108.44 105.47 C 113.32 104.41 118.83 106.09 121.77 110.25 C 126.13 115.99 124.15 125.28 117.73 128.64 C 111.66 132.32 102.77 129.53 100.08 122.91 C 96.96 116.11 100.82 106.90 108.44 105.47 Z"
     id="path3302" />
  <path
     fill="#75af41"
     d=" M 227.45 105.47 C 233.72 103.43 240.59 109.38 239.20 115.88 C 238.31 122.82 228.77 126.16 223.83 121.15 C 218.58 116.79 220.70 106.93 227.45 105.47 Z"
     id="path3304" />
  <path
     fill="#75af41"
     d=" M 148.38 130.47 C 157.19 128.65 166.75 134.61 168.61 143.49 C 171.22 152.57 165.00 162.86 155.80 164.87 C 146.03 167.62 134.86 160.07 134.19 149.87 C 132.91 140.97 139.37 131.70 148.38 130.47 Z"
     id="path3306" />
  <path
     fill="#75af41"
     d=" M 79.45 132.43 C 83.56 130.89 88.63 132.16 91.41 135.59 C 95.06 140.01 94.74 147.46 90.12 151.11 C 85.67 155.10 78.10 154.20 74.46 149.55 C 69.92 144.09 72.56 134.52 79.45 132.43 Z"
     id="path3308" />
  <path
     fill="#75af41"
     d=" M 216.46 142.44 C 223.16 139.80 231.60 145.57 230.86 152.95 C 231.46 161.64 219.99 166.91 213.46 161.55 C 206.65 156.80 208.38 144.78 216.46 142.44 Z"
     id="path3310" />
  <path
     fill="#75af41"
     d=" M 189.41 165.47 C 198.28 163.42 206.69 173.10 203.71 181.59 C 201.60 189.05 191.93 193.00 185.32 188.73 C 179.99 185.99 177.90 179.30 179.75 173.77 C 181.16 169.56 184.97 166.12 189.41 165.47 Z"
     id="path3312" />
  <path
     fill="#75af41"
     d=" M 70.43 172.41 C 74.51 171.28 79.39 172.85 81.22 176.87 C 84.17 181.70 81.04 188.39 75.84 190.03 C 70.19 192.16 63.37 187.05 63.78 181.04 C 63.78 177.10 66.60 173.37 70.43 172.41 Z"
     id="path3314" />
  <path
     fill="#75af41"
     d=" M 147.37 172.40 C 155.99 169.79 166.02 176.07 167.30 185.02 C 169.12 193.96 161.83 203.48 152.62 203.67 C 144.16 204.55 136.09 197.47 135.68 189.01 C 134.95 181.56 140.24 174.36 147.37 172.40 Z"
     id="path3316" />
  <path
     fill="#75af41"
     d=" M 80.52 212.53 C 85.11 210.82 90.60 214.20 90.67 219.20 C 91.50 225.13 83.78 229.59 79.02 226.04 C 73.79 223.11 74.75 214.20 80.52 212.53 Z"
     id="path3318" />
  <path
     fill="#75af41"
     d=" M 110.45 244.31 C 113.64 243.18 117.71 245.33 117.50 249.00 C 117.73 253.70 110.50 255.67 108.27 251.63 C 106.43 249.21 107.37 245.14 110.45 244.31 Z"
     id="path3320" />
  <path
     fill="#75af41"
     d=" M 149.51 259.38 C 151.50 259.41 153.50 259.41 155.49 259.39 C 155.44 261.11 155.46 262.83 155.55 264.56 C 153.52 264.51 151.50 264.51 149.48 264.56 C 149.55 262.83 149.56 261.10 149.51 259.38 Z"
     id="path3322" />
  <path
     sodipodi:type="arc"
     style="fill:#75af41;fill-opacity:1;stroke:none"
     id="path3334"
     sodipodi:cx="191.06787"
     sodipodi:cy="327.09967"
     sodipodi:rx="5.5144391"
     sodipodi:ry="5.6262183"
     d="m 196.58231,327.09967 a 5.5144391,5.6262183 0 1 1 -11.02888,0 5.5144391,5.6262183 0 1 1 11.02888,0 z"
     transform="scale(0.8,0.8)" />
  <path
     sodipodi:type="arc"
     style="fill:#75af41;fill-opacity:1;stroke:none"
     id="path3338"
     sodipodi:cx="188.08841"
     sodipodi:cy="41.28513"
     sodipodi:rx="5.6118269"
     sodipodi:ry="5.4537473"
     d="M 193.70024,41.28513 A 5.6118269,5.4537473 0 1 1 193.6868,40.908"
     transform="scale(0.8,0.8)"
     sodipodi:start="0"
     sodipodi:end="6.2139796"
     sodipodi:open="true" />
  <path
     style="fill:none;stroke:none"
     d="m 182.44857,152.84157 c -3.73024,-1.41228 -8.60766,-6.07249 -10.59845,-10.12647 -1.40213,-2.85525 -1.6658,-4.14707 -1.6658,-8.16142 0,-4.00118 0.26519,-5.30925 1.64668,-8.12234 5.57934,-11.36108 19.86141,-14.76207 29.61508,-7.05223 3.82104,3.02036 5.80753,6.16318 7.0321,11.12545 1.11387,4.51374 0.59462,8.40866 -1.74575,13.0948 -1.79164,3.5874 -6.69728,7.98725 -10.35691,9.28905 -3.72227,1.32409 -10.36492,1.30175 -13.92695,-0.0468 z"
     id="path3340"
     inkscape:connector-curvature="0"
     transform="scale(0.8,0.8)" />
</svg>
